<?xml version="1.0" encoding="UTF-8"?>
<!DOCTYPE svg PUBLIC "-//W3C//DTD SVG 1.1//EN" "http://www.w3.org/Graphics/SVG/1.1/DTD/svg11.dtd">
<!-- Creator: CorelDRAW 2020 (64-Bit) -->
<svg xmlns="http://www.w3.org/2000/svg" xml:space="preserve" width="108mm" height="35mm" version="1.1" style="shape-rendering:geometricPrecision; text-rendering:geometricPrecision; image-rendering:optimizeQuality; fill-rule:evenodd; clip-rule:evenodd"
viewBox="0 0 10800 3500"
 xmlns:xlink="http://www.w3.org/1999/xlink"
 xmlns:xodm="http://www.corel.com/coreldraw/odm/2003">
 <defs>
  <style type="text/css">
   <![CDATA[
    .fil4 {fill:#090E20}
    .fil3 {fill:#348A62}
    .fil2 {fill:#41A878}
    .fil1 {fill:#45B481}
    .fil0 {fill:#C5C6C6;fill-rule:nonzero}
   ]]>
  </style>
 </defs>
 <g id="Katman_x0020_1">
  <metadata id="CorelCorpID_0Corel-Layer"/>
  <path class="fil0" d="M3434.56 2406.2l0 -451.6 -228.12 0 0 297.97c-38.8,12.41 -97.77,21.72 -152.09,21.72 -220.37,0 -360.04,-161.39 -360.04,-363.14 0,-198.64 139.67,-361.59 370.91,-361.59 150.53,0 262.26,43.45 335.2,77.59l0 -220.36c-63.62,-29.49 -184.67,-76.05 -350.72,-76.05 -346.08,0 -595.93,254.51 -595.93,580.41 0,327.45 246.75,580.41 600.58,580.41 136.57,0 280.89,-34.15 380.21,-85.36z"/>
  <path id="_1" class="fil0" d="M3948.24 1672.16c-221.92,0 -394.18,173.81 -394.18,409.7 0,237.44 167.6,409.7 434.53,409.7 138.12,0 242.09,-31.04 290.2,-55.87l0 -197.09c-43.45,24.83 -158.29,57.42 -268.48,57.42 -125.7,0 -206.4,-60.53 -215.71,-166.05l509.02 0c1.55,-15.52 6.21,-52.77 6.21,-94.67 0,-192.43 -122.6,-363.14 -361.59,-363.14zm139.67 338.31l-293.31 0c6.21,-83.8 58.97,-155.19 152.09,-155.19 94.66,0 144.32,71.39 141.22,155.19z"/>
  <path id="_2" class="fil0" d="M4665.22 2081.86c0,-125.71 86.9,-206.4 209.5,-206.4 80.7,0 158.29,32.59 201.75,63.62l0 -211.05c-31.04,-15.52 -108.64,-55.87 -232.79,-55.87 -248.3,0 -412.8,173.81 -412.8,409.7 0,235.88 164.5,409.7 412.8,409.7 125.71,0 206.4,-41.9 237.44,-57.42l0 -209.51c-29.48,20.18 -113.29,63.63 -206.4,63.63 -125.7,0 -209.5,-80.7 -209.5,-206.4z"/>
  <polygon id="_3" class="fil0" points="6001.4,1693.89 5732.92,1693.89 5475.31,2015.13 5475.31,1352.47 5242.52,1352.47 5242.52,2469.83 5470.65,2469.83 5470.65,2249.46 5562.21,2142.38 5756.2,2469.83 6018.47,2469.83 5739.13,2024.44 "/>
  <path id="_4" class="fil0" d="M6470.06 1672.16c-238.99,0 -412.8,173.81 -412.8,409.7 0,235.88 173.81,409.7 412.8,409.7 238.99,0 414.36,-173.82 414.36,-409.7 0,-235.89 -175.37,-409.7 -414.36,-409.7zm0 623.86c-110.18,0 -193.98,-85.36 -193.98,-214.16 0,-128.81 83.8,-214.16 193.98,-214.16 110.19,0 195.54,85.35 195.54,214.16 0,128.8 -85.35,214.16 -195.54,214.16z"/>
  <path id="_5" class="fil0" d="M7416.72 2088.07c257.61,0 429.87,-127.26 429.87,-367.8 0,-240.55 -172.26,-367.8 -429.87,-367.8l-363.14 0 0 1117.36 238.99 0 0 -381.76 124.15 0zm6.21 -535.41c107.08,0 181.57,55.87 181.57,167.61 0,111.73 -71.39,166.05 -175.37,166.05l-136.56 0 0 -333.66 130.36 0z"/>
  <path id="_6" class="fil0" d="M7980.06 2469.83l231.23 0 0 -330.55c0,-141.22 96.22,-245.2 214.16,-245.2 29.48,0 48.11,7.76 51.21,9.31l0 -226.58c-3.1,-1.55 -24.83,-4.65 -49.66,-4.65 -100.87,0 -181.57,65.18 -229.68,148.98 -1.55,-9.31 -1.55,-27.93 -1.55,-51.21l-4.66 -76.04 -211.05 0 0 775.94z"/>
  <path id="_7" class="fil0" d="M8943.78 1672.16c-221.92,0 -394.18,173.81 -394.18,409.7 0,237.44 167.6,409.7 434.53,409.7 138.12,0 242.09,-31.04 290.2,-55.87l0 -197.09c-43.45,24.83 -158.29,57.42 -268.48,57.42 -125.7,0 -206.4,-60.53 -215.71,-166.05l509.02 0c1.55,-15.52 6.21,-52.77 6.21,-94.67 0,-192.43 -122.6,-363.14 -361.59,-363.14zm139.67 338.31l-293.31 0c6.21,-83.8 58.97,-155.19 152.09,-155.19 94.66,0 144.32,71.39 141.22,155.19z"/>
  <path id="_8" class="fil0" d="M9792.66 2246.36c0,46.55 -52.76,62.07 -110.18,62.07 -76.04,0 -187.78,-32.59 -260.72,-71.38l0 203.29c55.87,24.83 145.88,51.22 263.82,51.22 197.09,0 319.69,-86.91 319.69,-235.89 0,-139.67 -83.8,-201.75 -260.71,-251.41 -82.25,-24.83 -121.05,-45 -121.05,-83.8 0,-34.14 32.59,-49.66 65.18,-55.87 21.72,-4.65 46.55,-4.65 71.39,-3.1 68.28,6.21 145.87,31.04 197.09,57.42l0 -198.64c-46.56,-20.18 -139.67,-48.11 -251.41,-48.11 -180.02,0 -294.86,93.11 -294.86,237.44 0,150.53 102.42,211.05 246.75,251.4 88.46,26.39 135.01,43.46 135.01,85.36z"/>
  <path id="_9" class="fil0" d="M10492.56 2246.36c0,46.55 -52.76,62.07 -110.18,62.07 -76.04,0 -187.78,-32.59 -260.72,-71.38l0 203.29c55.87,24.83 145.88,51.22 263.82,51.22 197.09,0 319.69,-86.91 319.69,-235.89 0,-139.67 -83.8,-201.75 -260.71,-251.41 -82.25,-24.83 -121.05,-45 -121.05,-83.8 0,-34.14 32.59,-49.66 65.18,-55.87 21.72,-4.65 46.55,-4.65 71.39,-3.1 68.28,6.21 145.87,31.04 197.09,57.42l0 -198.64c-46.56,-20.18 -139.67,-48.11 -251.41,-48.11 -180.02,0 -294.86,93.11 -294.86,237.44 0,150.53 102.42,211.05 246.75,251.4 88.46,26.39 135.01,43.46 135.01,85.36z"/>
  <path class="fil1" d="M1769.1 636.77c53.99,-31.21 136.27,-6.67 161.39,43.15 30.6,60.69 1.89,132.02 -47.16,153.65 -149.51,65.96 -251.14,-117.63 -114.23,-196.8zm-1680.58 1825.98c3.29,-2.53 4.97,-12.85 5.74,-11.09l8.45 -21.69c8.16,-40.52 -6.94,-96.53 -10.79,-132.9 -15.79,-150.25 7.92,-345.91 63.03,-478.89 -31.66,148.79 12.12,55.61 8.27,136.46l54.02 -38.26c23.82,-14.78 -0.08,7.9 20.12,-14.51 12.76,-14.12 8.51,-14.78 13.03,-27.52l6.17 38.82c19.91,22.11 4.89,0.58 29.08,7.07 30.81,8.27 33.92,23.66 81.37,19.86 20.95,-25.87 60.16,-92.07 61.15,-122.42 3.03,-92.17 12.09,-17.15 -19.43,-60.88 -16.04,13.85 0.85,10.6 12.01,7.41 21.51,-6.16 37.99,32.94 15.15,-33.15 18.4,25.58 -9.17,13.35 29.3,12.23l12.1 -6.54c5.31,-5.37 4.97,-6.54 1.17,-6.75 0.74,3.72 1.38,16.38 2.47,19.25 16.77,44.42 2.39,16.75 20.34,38.49 34.56,-12.57 39.71,-25.6 57.02,-55.85 12.52,14.22 6.11,10.76 26.29,22.22 2.82,1.6 20.71,9.28 24.11,10.08l29.14 1.41c3.88,-21.19 2.05,-49.56 -29.43,-58.3 -59.47,-16.49 -15.68,2.36 -16.16,2.95 -11.38,-37.88 -11.94,-16.19 3.24,-24.59 47.69,-26.48 -45.06,13.61 13.24,-3.62 35.81,-10.58 14.7,0.85 18.02,-6.11l17.66 58.11c1.14,2.26 3.05,6.54 5.1,9.52l77.12 -23.56c31.37,-36.87 5.34,4.26 2.71,-16.4 18.37,14.86 28.21,12.79 52.64,14.6 7.82,-27.49 0.93,-29.57 12.26,-35.71 0.74,-0.42 3.9,-1.01 4.78,-1.43 1.09,-0.51 4.52,-1.46 5.72,-2.05 1.38,-0.66 4.78,-2.18 6.27,-2.98 30.49,-16.32 7.26,-7.92 24.75,-16.32 20.26,-9.76 10.5,-3.11 15.21,-3.75 68.8,-9.17 -49.05,33.87 16.08,-1.14 32.11,-17.25 -4.2,3.08 8.27,-9.12l13.98 -11.32c0.93,-0.56 3.8,-2.08 4.84,-2.69 2.15,-1.2 8.91,-4.89 11.56,-6.22l129.97 -61.01c7.13,2.15 3.27,4.36 17.31,3.32l20.15 -7.41c45.36,-52.54 -6.17,11.03 -1.7,-31.85 8.48,-3.78 17.87,-9.28 22.86,-11.04l76.06 -29.82c1.81,-1.31 4.73,-4.23 6.94,-6.49l3.46 33.6c0.45,2.34 1.86,10.13 3.69,13.45 1.73,-2.26 3.83,-8.98 4.55,-7.2 0.74,1.78 3.67,-5.66 4.68,-7.1 1.03,-1.43 3.48,-5.21 4.78,-6.94 1.25,-1.72 3.4,-4.94 4.84,-6.8 12.73,-16.3 13.45,-16.01 27.78,-29.09l13.35 36c28.92,-39.69 60.98,-48.46 92.77,-94 0.91,-1.31 2.85,-4.12 3.86,-5.45l26.85 -28.66c1.01,1.99 1.73,3.4 1.97,6.41l9.43 31.9c7.87,-4.89 42.06,-25.47 47.06,-27.36 38.89,-14.67 16.35,-25.25 43.52,13.51 3.88,-61.39 21.93,-45.73 75.58,-54.71l11.99 -2.32c26.42,-4.91 33.92,-90.36 38.57,-116.17 0,34.96 -11.59,97.41 8.56,123.62 30.07,39.1 -8,22.12 25.15,3.83 -9.65,-151.61 6.86,-190.72 146.24,-219.22 163.63,-33.44 207.28,-93.52 299.47,-180.29 93.58,-88.08 405.73,-622.74 -25.04,-634.97 -239.05,-6.81 -209.03,62.31 -324.3,37.83 -136.22,-28.95 -235.14,-4.58 -296.6,76.51 -90.47,119.33 -3.03,110.59 -131.3,245.32 -61.18,64.23 -92.01,153.6 -143.61,243.88 -167.41,292.88 -441.81,142.23 -820,514.41 -97.62,96.05 -161.98,226.69 -209.43,361.02 -95.52,270.36 -56.73,419.5 -36.63,660.57z"/>
  <path class="fil2" d="M88.52 2462.75l71.4 205.68c27.07,-18.93 22.01,32.96 22.01,-45.94 -11.77,-9.78 -31.21,-53.51 -35.03,-70.13 -10.61,-46.02 1.09,-8.35 9.01,-11.51 50.8,-20.2 27.51,51.81 126.94,77.55 10.63,-41.74 15.07,-44.24 -6.81,-73.14 40.25,19.81 9.65,17.5 50.59,2.26 -1.75,3.38 -9.22,13.85 -9.57,15.77 -4.46,23.47 15.85,37.27 33.31,50.16 79.04,58.2 24.57,16.94 89.3,84.25 1.33,1.41 4.12,4.22 6.27,6.25 -4.33,-58.09 6.62,-17.87 -25.25,-58.89 26.66,-8 19.33,-4.09 34.96,-22.36 7.28,13.32 0.24,18.32 22.81,34.22 16.32,-28.5 1.38,-5.8 11.35,-30.79l21.72 -39.82c0.66,-1.09 2.76,-3.59 3.37,-4.71l9.23 -53.62c0.61,33.05 9.6,98.92 26.24,121.36 21,28.37 7.12,17.39 43.81,30.04 -26.53,-98.07 -58.12,-119.52 -37.7,-239.39 40.09,-49.05 252.98,-167.8 345.31,-136.83 84.14,232.35 -28.42,263.53 -47.24,296.34 -65.46,114.12 86.45,192.44 144.61,121.38 15.4,-18.8 4.58,-92.3 74.28,-173.6 63.22,7.93 109.58,46.9 133.83,98.26 21.85,46.31 60.08,110.75 115,124.33 64.02,4.15 90.79,-27.46 99.32,-90.41 -7.1,-84.46 -102.64,-49.82 -184.6,-174.15 97.08,-55.35 112.56,-4.39 188.51,-5.53 67.84,-1.01 113.99,-74.78 69.52,-140.34 -61.49,-90.68 -202.68,20.95 -333.19,23.98 14.44,-78.64 28.1,-144.38 10.61,-226.58 -71.94,-337.94 -360.16,-172.53 -444.33,-143.96 20.02,-18.45 24.51,-26 44.74,-41.81 10.45,-8.14 33.68,-24.78 46.21,-33.63 34.02,-24.11 65.15,-40.36 107.05,-52.67 144.89,-42.53 159.77,25.9 251.67,38.68 83.67,11.62 115.17,-60.61 174.98,-149.56 45.28,-67.31 96.16,-158.76 49.1,-245.53 44.53,13.5 16.75,4.84 48.92,52.95 173.68,259.68 359.82,114.4 481.12,96.08 44.59,43.17 49.96,62.05 84.01,113.99 89.78,137.07 200.55,47.59 165.59,-34.77 -32.06,-75.47 -189.94,-78.08 -146.74,-154.51 26.96,-47.61 183.8,-24.48 225.86,-18.98 96.63,12.74 125.35,-74.75 82.86,-141.27 -121.75,-91.08 -170.51,87.36 -280.67,17.47 -1.09,-75.1 29.34,-44.88 60.98,-88.16 24.67,-33.7 24.99,-99.85 -4.87,-127.2 -31.05,-28.47 -83.92,-24.78 -106.81,17.12 -25.6,46.81 -2.53,75.84 -26,121.22 -9.12,17.63 -57.16,61.36 -74.76,72.63 -141.11,90.55 -256.11,-70.93 -281.63,-97.24 -33.15,18.29 4.92,35.27 -25.15,-3.83 -20.15,-26.21 -8.56,-88.66 -8.56,-123.62 -4.65,25.81 -12.15,111.26 -38.57,116.17l-11.99 2.32c-53.65,8.98 -71.7,-6.68 -75.58,54.71 -27.17,-38.76 -4.63,-28.18 -43.52,-13.51 -5,1.89 -39.19,22.47 -47.06,27.36l-9.43 -31.9c-0.24,-3.01 -0.96,-4.42 -1.97,-6.41l-26.85 28.66c-1.01,1.33 -2.95,4.14 -3.86,5.45 -31.79,45.54 -63.85,54.31 -92.77,94l-13.35 -36c-14.33,13.08 -15.05,12.79 -27.78,29.09 -1.44,1.86 -3.59,5.08 -4.84,6.8 -1.3,1.73 -3.75,5.51 -4.78,6.94 -1.01,1.44 -3.94,8.88 -4.68,7.1 -0.72,-1.78 -2.82,4.94 -4.55,7.2 -1.83,-3.32 -3.24,-11.11 -3.69,-13.45l-3.46 -33.6c-2.21,2.26 -5.13,5.18 -6.94,6.49l-76.06 29.82c-4.99,1.76 -14.38,7.26 -22.86,11.04 -4.47,42.88 47.06,-20.69 1.7,31.85l-20.15 7.41c-14.04,1.04 -10.18,-1.17 -17.31,-3.32l-129.97 61.01c-2.65,1.33 -9.41,5.02 -11.56,6.22 -1.04,0.61 -3.91,2.13 -4.84,2.69l-13.98 11.32c-12.47,12.2 23.84,-8.13 -8.27,9.12 -65.13,35.01 52.72,-8.03 -16.08,1.14 -4.71,0.64 5.05,-6.01 -15.21,3.75 -17.49,8.4 5.74,0 -24.75,16.32 -1.49,0.8 -4.89,2.32 -6.27,2.98 -1.2,0.59 -4.63,1.54 -5.72,2.05 -0.88,0.42 -4.04,1.01 -4.78,1.43 -11.33,6.14 -4.44,8.22 -12.26,35.71 -24.43,-1.81 -34.27,0.26 -52.64,-14.6 2.63,20.66 28.66,-20.47 -2.71,16.4l-77.12 23.56c-2.05,-2.98 -3.96,-7.26 -5.1,-9.52l-17.66 -58.11c-3.32,6.96 17.79,-4.47 -18.02,6.11 -58.3,17.23 34.45,-22.86 -13.24,3.62 -15.18,8.4 -14.62,-13.29 -3.24,24.59 0.48,-0.59 -43.31,-19.44 16.16,-2.95 31.48,8.74 33.31,37.11 29.43,58.3l-29.14 -1.41c-3.4,-0.8 -21.29,-8.48 -24.11,-10.08 -20.18,-11.46 -13.77,-8 -26.29,-22.22 -17.31,30.25 -22.46,43.28 -57.02,55.85 -17.95,-21.74 -3.57,5.93 -20.34,-38.49 -1.09,-2.87 -1.73,-15.53 -2.47,-19.25 3.8,0.21 4.14,1.38 -1.17,6.75l-12.1 6.54c-38.47,1.12 -10.9,13.35 -29.3,-12.23 22.84,66.09 6.36,26.99 -15.15,33.15 -11.16,3.19 -28.05,6.44 -12.01,-7.41 31.52,43.73 22.46,-31.29 19.43,60.88 -0.99,30.35 -40.2,96.55 -61.15,122.42 -47.45,3.8 -50.56,-11.59 -81.37,-19.86 -24.19,-6.49 -9.17,15.04 -29.08,-7.07l-6.17 -38.82c-4.52,12.74 -0.27,13.4 -13.03,27.52 -20.2,22.41 3.7,-0.27 -20.12,14.51l-54.02 38.26c3.85,-80.85 -39.93,12.33 -8.27,-136.46 -55.11,132.98 -78.82,328.64 -63.03,478.89 3.85,36.37 18.95,92.38 10.79,132.9l-8.45 21.69c-0.77,-1.76 -2.45,8.56 -5.74,11.09z"/>
  <path class="fil3" d="M594.18 2679.38c-36.69,-12.65 -22.81,-1.67 -43.81,-30.04 -16.64,-22.44 -25.63,-88.31 -26.24,-121.36l-9.23 53.62c-0.61,1.12 -2.71,3.62 -3.37,4.71l-21.72 39.82c-9.97,24.99 4.97,2.29 -11.35,30.79 -22.57,-15.9 -15.53,-20.9 -22.81,-34.22 -15.63,18.27 -8.3,14.36 -34.96,22.36 31.87,41.02 20.92,0.8 25.25,58.89 -2.15,-2.03 -4.94,-4.84 -6.27,-6.25 -64.73,-67.31 -10.26,-26.05 -89.3,-84.25 -17.46,-12.89 -37.77,-26.69 -33.31,-50.16 0.35,-1.92 7.82,-12.39 9.57,-15.77 -40.94,15.24 -10.34,17.55 -50.59,-2.26 21.88,28.9 17.44,31.4 6.81,73.14 -99.43,-25.74 -76.14,-97.75 -126.94,-77.55 -7.92,3.16 -19.62,-34.51 -9.01,11.51 3.82,16.62 23.26,60.35 35.03,70.13 0,78.9 5.06,27.01 -22.01,45.94 24.01,61.01 66.86,132.15 96,175.59 10.55,15.74 19.54,26.53 28.66,39.72 13.47,19.46 16.16,28.02 26.74,42.4 64.12,87.09 120.8,128.96 202.09,197.65 250.93,212.01 674.08,313.91 1025.39,206.11 176.81,-54.23 296.12,-126.25 427.34,-246.12 234.98,-214.64 285.73,-642.62 33.87,-831.64 -68.32,-51.28 -95.14,-63.61 -193.77,-60.74 24.83,63.72 -8.99,5.47 33.1,40.06 67.92,55.8 103.46,82.81 143.69,173.68 119.2,269.46 -84.28,559.89 -382.42,665.91 -257.71,91.69 -583.95,32.43 -807.74,-147.2 -23.45,-18.82 -27.14,-17.68 -49.69,-41.55 -17.46,-18.5 -24.75,-30.81 -41.02,-50.3 -46.17,-55.37 -86.79,-137.01 -107.98,-152.62z"/>
  <polygon class="fil1" points="291.28,1077.7 502.41,1082.19 497.76,860.66 287.71,859.1 "/>
  <polygon class="fil1" points="594.34,643.07 807.28,641.87 808.82,432.04 595.13,431.67 "/>
  <path class="fil4" d="M1769.1 636.77c-136.91,79.17 -35.28,262.76 114.23,196.8 49.05,-21.63 77.76,-92.96 47.16,-153.65 -25.12,-49.82 -107.4,-74.36 -161.39,-43.15z"/>
  <polygon class="fil1" points="923.35,417.29 1102.6,418.49 1103.67,246.33 924.89,244.97 "/>
  <polygon class="fil1" points="782.26,962.51 953.94,962.03 955.96,787.21 778.41,789.26 "/>
 </g>
</svg>
