<?xml version="1.0" encoding="UTF-8"?>
<!DOCTYPE svg PUBLIC "-//W3C//DTD SVG 1.1//EN" "http://www.w3.org/Graphics/SVG/1.1/DTD/svg11.dtd">
<!-- Creator: CorelDRAW 2020 (64-Bit) -->
<svg xmlns="http://www.w3.org/2000/svg" xml:space="preserve" width="512mm" height="512mm" version="1.1" style="shape-rendering:geometricPrecision; text-rendering:geometricPrecision; image-rendering:optimizeQuality; fill-rule:evenodd; clip-rule:evenodd"
viewBox="0 0 51200 51200"
 xmlns:xlink="http://www.w3.org/1999/xlink"
 xmlns:xodm="http://www.corel.com/coreldraw/odm/2003">
 <defs>
  <style type="text/css">
   <![CDATA[
    .fil3 {fill:#090E20}
    .fil2 {fill:#348A62}
    .fil1 {fill:#41A878}
    .fil0 {fill:#45B481}
   ]]>
  </style>
 </defs>
 <g id="Katman_x0020_1">
  <metadata id="CorelCorpID_0Corel-Layer"/>
  <g id="_2517404109616">
   <path class="fil0" d="M34143.09 7621.77c825.12,-476.98 2082.58,-101.94 2466.48,659.45 467.65,927.51 28.89,2017.62 -720.73,2348.19 -2284.92,1008.05 -3838.11,-1797.71 -1745.75,-3007.64zm-25683.84 27905.95c50.28,-38.67 75.95,-196.38 87.72,-169.49l129.14 -331.48c124.71,-619.25 -106.06,-1475.24 -164.9,-2031.07 -241.31,-2296.23 121.04,-5286.45 963.27,-7318.75 -483.85,2273.92 185.23,849.88 126.39,2085.48l825.57 -584.71c364.04,-225.88 -1.22,120.73 307.49,-221.76 195.01,-215.79 130.06,-225.87 199.13,-420.58l94.3 593.28c304.28,337.9 74.73,8.86 444.42,108.05 470.86,126.39 518.39,361.59 1243.56,303.51 320.17,-395.36 919.4,-1407.08 934.53,-1870.91 46.31,-1408.61 184.77,-262.1 -296.94,-930.41 -245.13,211.67 12.99,162 183.55,113.24 328.73,-94.14 580.59,503.42 231.53,-506.62 281.2,390.93 -140.14,204.03 447.78,186.91l184.92 -99.95c81.16,-82.07 75.96,-99.95 17.89,-103.16 11.3,56.85 21.09,250.33 37.74,294.19 256.29,678.86 36.53,255.99 310.85,588.24 528.18,-192.11 606.88,-391.24 871.43,-853.54 191.33,217.32 93.37,164.44 401.78,339.58 43.1,24.45 316.5,141.82 368.46,154.05l445.34 21.55c59.3,-323.84 31.33,-757.41 -449.77,-890.99 -908.86,-252.01 -239.63,36.07 -246.97,45.09 -173.91,-578.91 -182.47,-247.43 49.52,-375.8 728.83,-404.69 -688.64,207.99 202.34,-55.33 547.28,-161.69 224.66,12.99 275.4,-93.37l269.89 888.07c17.42,34.54 46.61,99.95 77.94,145.5l1178.61 -360.06c479.42,-563.48 81.61,65.1 41.41,-250.64 280.75,227.1 431.13,195.46 804.49,223.13 119.51,-420.13 14.21,-451.91 187.36,-545.75 11.31,-6.42 59.6,-15.44 73.05,-21.85 16.66,-7.8 69.08,-22.32 87.42,-31.33 21.09,-10.09 73.05,-33.32 95.82,-45.55 465.97,-249.41 110.96,-121.04 378.25,-249.41 309.63,-149.16 160.47,-47.53 232.45,-57.31 1051.45,-140.14 -749.62,517.63 245.75,-17.42 490.73,-263.63 -64.19,47.07 126.38,-139.38l213.66 -173c14.21,-8.56 58.07,-31.79 73.97,-41.11 32.85,-18.34 136.16,-74.73 176.66,-95.06l1986.3 -932.4c108.97,32.86 49.97,66.63 264.54,50.74l307.95 -113.25c693.23,-802.95 -94.29,168.57 -25.98,-486.75 129.6,-57.77 273.1,-141.82 349.36,-168.72l1162.41 -455.73c27.66,-20.02 72.28,-64.65 106.06,-99.19l52.88 513.5c6.88,35.76 28.42,154.82 56.39,205.55 26.44,-34.54 58.53,-137.23 69.54,-110.03 11.31,27.2 56.09,-86.5 71.52,-108.51 15.74,-21.85 53.18,-79.62 73.05,-106.06 19.11,-26.29 51.96,-75.5 73.97,-103.92 194.55,-249.11 205.55,-244.68 424.55,-444.58l204.03 550.18c441.98,-606.57 931.94,-740.6 1417.78,-1436.58 13.9,-20.02 43.55,-62.96 58.99,-83.29l410.34 -438c15.44,30.41 26.44,51.96 30.11,97.96l144.11 487.52c120.28,-74.73 642.79,-389.25 719.21,-418.13 594.34,-224.2 249.87,-385.89 665.1,206.47 59.3,-938.21 335.15,-698.88 1155.07,-836.12l183.24 -35.46c403.77,-75.04 518.39,-1380.95 589.46,-1775.39 0,534.28 -177.13,1488.69 130.82,1889.25 459.55,597.55 -122.27,338.05 384.36,58.53 -147.48,-2317.01 104.84,-2914.72 2234.94,-3350.28 2500.71,-511.05 3167.81,-1429.24 4576.72,-2755.32 1430.16,-1346.1 6200.66,-9517.17 -382.68,-9704.07 -3653.34,-104.08 -3194.55,952.26 -4956.19,578.14 -2081.81,-442.43 -3593.58,-69.99 -4532.85,1169.28 -1382.63,1823.69 -46.31,1690.12 -2006.63,3749.16 -934.99,981.61 -1406.16,2347.43 -2194.75,3727.15 -2558.48,4476.01 -6752.06,2173.66 -12531.83,7861.59 -1491.9,1467.91 -2475.5,3464.44 -3200.66,5517.37 -1459.81,4131.84 -866.99,6411.1 -559.81,10095.31z"/>
   <path class="fil1" d="M8459.25 35527.72l1091.19 3143.35c413.7,-289.3 336.37,503.72 336.37,-702.09 -179.88,-149.46 -476.98,-817.78 -535.36,-1071.78 -162.14,-703.31 16.66,-127.61 137.7,-175.9 776.36,-308.71 420.43,791.8 1939.99,1185.18 162.46,-637.91 230.31,-676.11 -104.07,-1117.78 615.13,302.75 147.47,267.44 773.15,34.54 -26.75,51.65 -140.91,211.66 -146.26,241 -68.16,358.69 242.23,569.59 509.07,766.59 1207.95,889.45 375.5,258.89 1364.75,1287.57 20.32,21.54 62.96,64.49 95.82,95.51 -66.17,-887.77 101.17,-273.1 -385.89,-900 407.44,-122.26 295.42,-62.5 534.29,-341.72 111.25,203.57 3.66,279.98 348.6,522.98 249.41,-435.56 21.09,-88.64 173.45,-470.56l331.94 -608.56c10.09,-16.66 42.19,-54.86 51.51,-71.98l141.06 -819.46c9.32,505.1 146.71,1511.77 401.02,1854.71 320.93,433.57 108.81,265.77 669.53,459.1 -405.45,-1498.78 -888.23,-1826.59 -576.16,-3658.54 612.69,-749.61 3866.23,-2564.44 5277.28,-2091.13 1285.89,3550.94 -434.33,4027.46 -721.95,4528.88 -1000.41,1744.07 1321.19,2941.01 2210.03,1855.02 235.35,-287.32 70,-1410.6 1135.2,-2653.08 966.18,121.19 1674.68,716.76 2045.29,1501.68 333.93,707.74 918.18,1692.56 1757.51,1900.1 978.4,63.42 1387.52,-419.66 1517.88,-1381.71 -108.5,-1290.78 -1568.62,-761.39 -2821.19,-2661.49 1483.65,-845.9 1720.22,-67.09 2880.95,-84.51 1036.78,-15.44 1742.08,-1142.84 1062.45,-2144.78 -939.73,-1385.84 -3097.5,320.17 -5092.05,366.48 220.68,-1201.83 429.45,-2206.52 162.15,-3462.76 -1099.44,-5164.64 -5504.23,-2636.73 -6790.57,-2200.1 305.96,-281.97 374.58,-397.35 683.75,-638.97 159.7,-124.4 514.72,-378.71 706.21,-513.96 519.92,-368.47 995.67,-616.81 1636.02,-804.94 2214.31,-649.97 2441.72,395.82 3846.2,591.14 1278.71,177.58 1760.11,-926.29 2674.17,-2285.69 692,-1028.68 1469.59,-2426.28 750.38,-3752.37 680.54,206.32 255.99,73.97 747.64,809.22 2654.3,3968.62 5499.03,1748.35 7352.82,1468.37 681.46,659.75 763.53,948.29 1283.9,1742.08 1372.09,2094.8 3064.95,727.3 2530.67,-531.38 -489.97,-1153.39 -2902.8,-1193.28 -2242.59,-2361.34 412.02,-727.61 2808.97,-374.12 3451.76,-290.06 1476.77,194.7 1915.69,-1142.39 1266.32,-2159 -1860.67,-1391.95 -2605.85,1335.1 -4289.4,266.99 -16.66,-1147.73 448.4,-685.88 931.94,-1347.32 377.03,-515.03 381.92,-1525.98 -74.42,-1943.96 -474.53,-435.1 -1282.53,-378.71 -1632.35,261.64 -391.24,715.38 -38.67,1159.04 -397.35,1852.57 -139.38,269.43 -873.56,937.75 -1142.54,1109.98 -2156.55,1383.85 -3914.06,-1084 -4304.07,-1486.09 -506.63,279.52 75.19,539.02 -384.36,-58.53 -307.95,-400.56 -130.82,-1354.97 -130.82,-1889.25 -71.07,394.44 -185.69,1700.35 -589.46,1775.39l-183.24 35.46c-819.92,137.24 -1095.77,-102.09 -1155.07,836.12 -415.23,-592.36 -70.76,-430.67 -665.1,-206.47 -76.42,28.88 -598.93,343.4 -719.21,418.13l-144.11 -487.52c-3.67,-46 -14.67,-67.55 -30.11,-97.96l-410.34 438c-15.44,20.33 -45.09,63.27 -58.99,83.29 -485.84,695.98 -975.8,830.01 -1417.78,1436.58l-204.03 -550.18c-219,199.9 -230,195.47 -424.55,444.58 -22.01,28.42 -54.86,77.63 -73.97,103.92 -19.87,26.44 -57.31,84.21 -73.05,106.06 -15.43,22.01 -60.21,135.71 -71.52,108.51 -11.01,-27.2 -43.1,75.49 -69.54,110.03 -27.97,-50.73 -49.51,-169.79 -56.39,-205.55l-52.88 -513.5c-33.78,34.54 -78.4,79.17 -106.06,99.19l-1162.41 455.73c-76.26,26.9 -219.76,110.95 -349.36,168.72 -68.31,655.32 719.21,-316.2 25.98,486.75l-307.95 113.25c-214.57,15.89 -155.57,-17.88 -264.54,-50.74l-1986.3 932.4c-40.5,20.33 -143.81,76.72 -176.66,95.06 -15.9,9.32 -59.76,32.55 -73.97,41.11l-213.66 173c-190.57,186.45 364.35,-124.25 -126.38,139.38 -995.37,535.05 805.7,-122.72 -245.75,17.42 -71.98,9.78 77.18,-91.85 -232.45,57.31 -267.29,128.37 87.72,0 -378.25,249.41 -22.77,12.23 -74.73,35.46 -95.82,45.55 -18.34,9.01 -70.76,23.53 -87.42,31.33 -13.45,6.41 -61.74,15.43 -73.05,21.85 -173.15,93.84 -67.85,125.62 -187.36,545.75 -373.36,-27.67 -523.74,3.97 -804.49,-223.13 40.2,315.74 438.01,-312.84 -41.41,250.64l-1178.61 360.06c-31.33,-45.55 -60.52,-110.96 -77.94,-145.5l-269.89 -888.07c-50.74,106.36 271.88,-68.32 -275.4,93.37 -890.98,263.32 526.49,-349.36 -202.34,55.33 -231.99,128.37 -223.43,-203.11 -49.52,375.8 7.34,-9.02 -661.89,-297.1 246.97,-45.09 481.1,133.58 509.07,567.15 449.77,890.99l-445.34 -21.55c-51.96,-12.23 -325.36,-129.6 -368.46,-154.05 -308.41,-175.14 -210.45,-122.26 -401.78,-339.58 -264.55,462.3 -343.25,661.43 -871.43,853.54 -274.32,-332.25 -54.56,90.62 -310.85,-588.24 -16.65,-43.86 -26.44,-237.34 -37.74,-294.19 58.07,3.21 63.27,21.09 -17.89,103.16l-184.92 99.95c-587.92,17.12 -166.58,204.02 -447.78,-186.91 349.06,1010.04 97.2,412.48 -231.53,506.62 -170.56,48.76 -428.68,98.43 -183.55,-113.24 481.71,668.31 343.25,-478.2 296.94,930.41 -15.13,463.83 -614.36,1475.55 -934.53,1870.91 -725.17,58.08 -772.7,-177.12 -1243.56,-303.51 -369.69,-99.19 -140.14,229.85 -444.42,-108.05l-94.3 -593.28c-69.07,194.71 -4.12,204.79 -199.13,420.58 -308.71,342.49 56.55,-4.12 -307.49,221.76l-825.57 584.71c58.84,-1235.6 -610.24,188.44 -126.39,-2085.48 -842.23,2032.3 -1204.58,5022.52 -963.27,7318.75 58.84,555.83 289.61,1411.82 164.9,2031.07l-129.14 331.48c-11.77,-26.89 -37.44,130.82 -87.72,169.49z"/>
   <path class="fil2" d="M16187.11 38838.42c-560.72,-193.33 -348.6,-25.53 -669.53,-459.1 -254.31,-342.94 -391.7,-1349.61 -401.02,-1854.71l-141.06 819.46c-9.32,17.12 -41.42,55.32 -51.51,71.98l-331.94 608.56c-152.36,381.92 75.96,35 -173.45,470.56 -344.94,-243 -237.35,-319.41 -348.6,-522.98 -238.87,279.22 -126.85,219.46 -534.29,341.72 487.06,626.9 319.72,12.23 385.89,900 -32.86,-31.02 -75.5,-73.97 -95.82,-95.51 -989.25,-1028.68 -156.8,-398.12 -1364.75,-1287.57 -266.84,-197 -577.23,-407.9 -509.07,-766.59 5.35,-29.34 119.51,-189.35 146.26,-241 -625.68,232.9 -158.02,268.21 -773.15,-34.54 334.38,441.67 266.53,479.87 104.07,1117.78 -1519.56,-393.38 -1163.63,-1493.89 -1939.99,-1185.18 -121.04,48.29 -299.84,-527.41 -137.7,175.9 58.38,254 355.48,922.32 535.36,1071.78 0,1205.81 77.33,412.79 -336.37,702.09 366.93,932.4 1021.8,2019.61 1467.14,2683.49 161.23,240.55 298.62,405.46 438,607.03 205.86,297.41 246.97,428.23 408.66,647.99 979.93,1330.97 1846.15,1970.86 3088.49,3020.63 3834.89,3240.09 10301.78,4797.4 15670.75,3149.93 2702.14,-828.79 4525.52,-1929.45 6530.92,-3761.39 3591.14,-3280.28 4366.73,-9820.98 517.63,-12709.73 -1044.12,-783.69 -1454,-972.13 -2961.34,-928.27 379.47,973.82 -137.39,83.6 505.86,612.23 1038,852.77 1581.15,1265.56 2195.98,2654.3 1821.7,4118.09 -1288.03,8556.65 -5844.42,10176.92 -3938.52,1401.27 -8924.35,495.62 -12344.47,-2249.62 -358.38,-287.62 -414.78,-270.19 -759.4,-634.99 -266.84,-282.73 -378.25,-470.86 -626.9,-768.72 -705.6,-846.21 -1326.39,-2093.89 -1650.23,-2332.45z"/>
   <polygon class="fil0" points="11557.97,14360.38 14784.62,14429 14713.55,11043.42 11503.42,11019.58 "/>
   <polygon class="fil0" points="16189.56,7718.05 19443.86,7699.71 19467.4,4492.94 16201.63,4487.28 "/>
   <path class="fil3" d="M34143.09 7621.77c-2092.36,1209.93 -539.17,4015.69 1745.75,3007.64 749.62,-330.57 1188.38,-1420.68 720.73,-2348.19 -383.9,-761.39 -1641.36,-1136.43 -2466.48,-659.45z"/>
   <polygon class="fil0" points="21217.73,4267.52 23957.16,4285.85 23973.51,1654.78 21241.26,1634 "/>
   <polygon class="fil0" points="19061.49,12599.96 21685.23,12592.63 21716.1,9920.9 19002.65,9952.23 "/>
  </g>
 </g>
</svg>
